<svg width="156" height="36" viewBox="0 0 156 36" fill="none" xmlns="http://www.w3.org/2000/svg">
<path d="M18.0094 15.1387C16.2892 15.1349 14.6298 15.7748 13.3576 16.9326C13.5252 17.1207 13.6196 17.3628 13.6236 17.6146C13.6236 17.7549 13.5959 17.8939 13.542 18.0234C13.4881 18.1529 13.4091 18.2705 13.3095 18.3694C13.21 18.4683 13.092 18.5466 12.962 18.5996C12.8322 18.6527 12.6931 18.6796 12.5528 18.6787C12.3711 18.6788 12.1925 18.6318 12.0344 18.5423C11.26 19.8574 10.9419 21.3915 11.1296 22.9061C11.3172 24.4206 12 25.8307 13.0718 26.9172C14.1437 28.0036 15.5445 28.7054 17.0564 28.9134C18.5683 29.1214 20.1066 28.8241 21.432 28.0675C22.7574 27.3111 23.7957 26.1377 24.3854 24.7301C24.9751 23.3225 25.0832 21.7595 24.6929 20.2842C24.3025 18.8088 23.4356 17.5037 22.2269 16.572C21.0182 15.6402 19.5355 15.1339 18.0094 15.1319V15.1387ZM18.0094 24.2922C17.5679 24.2922 17.1365 24.1612 16.7695 23.9158C16.4026 23.6704 16.1168 23.3217 15.9481 22.9138C15.7795 22.5058 15.7357 22.057 15.8224 21.6242C15.909 21.1913 16.1221 20.7939 16.4347 20.4822C16.7473 20.1706 17.1453 19.9587 17.5784 19.8734C18.0116 19.7882 18.4602 19.8333 18.8676 20.0031C19.275 20.173 19.623 20.4599 19.8672 20.8276C20.1115 21.1953 20.2411 21.6272 20.2398 22.0686C20.2398 22.3612 20.182 22.6509 20.0699 22.9211C19.9577 23.1913 19.7933 23.4368 19.5861 23.6433C19.3789 23.8499 19.133 24.0136 18.8624 24.1249C18.5918 24.2363 18.3019 24.2931 18.0094 24.2922Z" fill="url(#paint0_linear_3_831)"/>
<path d="M35.3848 28.6168L20.629 3.14967C19.1881 0.664403 16.8327 0.664403 15.3987 3.14967L0.615238 28.6168C-0.825698 31.0952 0.35199 33.1317 3.23386 33.1317H32.7661C35.648 33.1524 36.8257 31.1159 35.3848 28.6168ZM18.0104 29.7559C16.6326 29.7555 15.28 29.3876 14.0931 28.6903C12.9063 27.9929 11.9283 26.9917 11.261 25.7905C10.5936 24.5893 10.2611 23.232 10.298 21.8594C10.3349 20.4869 10.7398 19.1492 11.4708 17.9854C11.4148 17.8569 11.3864 17.7181 11.3876 17.5781C11.3876 17.2925 11.5015 17.0185 11.7042 16.8165C11.9068 16.6145 12.1817 16.5011 12.4683 16.5011C12.5328 16.494 12.5979 16.494 12.6623 16.5011C13.5726 15.6289 14.6836 14.9926 15.8982 14.6481C17.1126 14.3034 18.3935 14.2611 19.6282 14.5248C20.863 14.7884 22.0139 15.35 22.9801 16.1602C23.9463 16.9704 24.6983 18.0045 25.17 19.1718C25.6417 20.3391 25.8187 21.6039 25.6857 22.8553C25.5526 24.1066 25.1134 25.3063 24.4066 26.3491C23.6998 27.3919 22.7471 28.2459 21.6319 28.8363C20.5167 29.4267 19.2731 29.7353 18.0104 29.7352V29.7559Z" fill="url(#paint1_linear_3_831)"/>
<path d="M48.6148 25C52.1708 25 54.2711 22.8542 54.2711 20.3333C54.2711 18.1042 53.0442 16.9167 51.1726 16.1458L49.1555 15.2917C47.8453 14.7708 46.764 14.375 46.764 13.2708C46.764 12.25 47.6166 11.6458 48.9683 11.6458C50.2368 11.6458 51.2558 12.1042 52.2332 12.9167L53.7928 10.9792C52.5451 9.70833 50.7567 9 48.9683 9C45.849 9 43.6447 10.9375 43.6447 13.4583C43.6447 15.7083 45.2043 16.9583 46.764 17.6042L48.8227 18.4792C50.1952 19.0625 51.131 19.4167 51.131 20.5625C51.131 21.6458 50.2784 22.3333 48.6772 22.3333C47.3255 22.3333 45.8698 21.6458 44.7676 20.625L43 22.75C44.4973 24.1875 46.556 25 48.6148 25Z" fill="#3C3C3C"/>
<path d="M59.5654 24.7083H62.6431V11.8542H67.0101V9.27083H55.2399V11.8542H59.5654V24.7083Z" fill="#3C3C3C"/>
<path d="M71.9195 16.6667C72.377 15.0625 72.8345 13.3125 73.2296 11.625H73.3336C73.7703 13.2917 74.1862 15.0625 74.6645 16.6667L75.122 18.3542H71.462L71.9195 16.6667ZM66.5959 24.7083H69.7152L70.7965 20.75H75.7874L76.8688 24.7083H80.0921L75.1428 9.27083H71.5244L66.5959 24.7083Z" fill="#3C3C3C"/>
<path d="M83.3461 24.7083H86.4238V11.8542H90.7909V9.27083H79.0206V11.8542H83.3461V24.7083Z" fill="#3C3C3C"/>
<path d="M99.1922 25C102.956 25 105.14 22.8958 105.14 17.7708V9.27083H102.187V18.0417C102.187 21.25 101.022 22.3333 99.1922 22.3333C97.4038 22.3333 96.2809 21.25 96.2809 18.0417V9.27083H93.2031V17.7708C93.2031 22.8958 95.4491 25 99.1922 25Z" fill="#3C3C3C"/>
<path d="M108.842 24.7083H111.92V19.2292H113.979C117.285 19.2292 119.926 17.6458 119.926 14.125C119.926 10.4792 117.306 9.27083 113.896 9.27083H108.842V24.7083ZM111.92 16.7917V11.7292H113.667C115.788 11.7292 116.911 12.3333 116.911 14.125C116.911 15.8958 115.892 16.7917 113.771 16.7917H111.92Z" fill="#3C3C3C"/>
<path d="M121.204 25C122.306 25 123.117 24.125 123.117 23C123.117 21.8542 122.306 21 121.204 21C120.123 21 119.312 21.8542 119.312 23C119.312 24.125 120.123 25 121.204 25Z" fill="#3C3C3C"/>
<path d="M133.103 25C135.245 25 137.054 24.1667 138.094 23.1458V16.1875H132.625V18.7083H135.349V21.75C134.912 22.125 134.164 22.3333 133.436 22.3333C130.4 22.3333 128.861 20.3125 128.861 16.9583C128.861 13.6458 130.649 11.6458 133.207 11.6458C134.6 11.6458 135.474 12.2083 136.243 12.9375L137.865 10.9792C136.867 9.95833 135.328 9 133.103 9C129.006 9 125.721 11.9792 125.721 17.0625C125.721 22.2083 128.923 25 133.103 25Z" fill="#3C3C3C"/>
<path d="M148.009 25C150.151 25 151.96 24.1667 153 23.1458V16.1875H147.531V18.7083H150.255V21.75C149.818 22.125 149.07 22.3333 148.342 22.3333C145.306 22.3333 143.767 20.3125 143.767 16.9583C143.767 13.6458 145.555 11.6458 148.113 11.6458C149.506 11.6458 150.38 12.2083 151.149 12.9375L152.771 10.9792C151.773 9.95833 150.234 9 148.009 9C143.912 9 140.627 11.9792 140.627 17.0625C140.627 22.2083 143.829 25 148.009 25Z" fill="#3C3C3C"/>
<defs>
<linearGradient id="paint0_linear_3_831" x1="18.0001" y1="15.1319" x2="18.0001" y2="28.978" gradientUnits="userSpaceOnUse">
<stop stop-color="#3C3BEB"/>
<stop offset="1" stop-color="#6224FF"/>
</linearGradient>
<linearGradient id="paint1_linear_3_831" x1="18" y1="1.28572" x2="18" y2="33.1319" gradientUnits="userSpaceOnUse">
<stop stop-color="#3C3BEB"/>
<stop offset="1" stop-color="#6224FF"/>
</linearGradient>
</defs>
</svg>
